<svg width="38" height="38" viewBox="0 0 38 38" fill="none" xmlns="http://www.w3.org/2000/svg">
<path d="M30.7268 22.5348C28.316 22.5348 26.3548 24.4961 26.3548 26.9069C26.3548 29.3172 28.3161 31.2785 30.7268 31.2785C33.1379 31.2785 35.0989 29.3172 35.0989 26.9069C35.0989 24.4961 33.1376 22.5348 30.7268 22.5348ZM30.7268 28.8265C29.6677 28.8265 28.8064 27.9652 28.8064 26.9065C28.8064 25.8474 29.6677 24.986 30.7268 24.986C31.7859 24.986 32.6472 25.8478 32.6472 26.9065C32.6473 27.9651 31.7859 28.8265 30.7268 28.8265Z" fill="#006CB7"/>
<path d="M24.4344 6.7215H1.2258C0.548773 6.7215 0 7.27027 0 7.94737V26.8248C0 27.5018 0.548773 28.0506 1.2258 28.0506H5.06669V25.599H2.45159V9.17316H23.2086V26.8248H25.6602V7.94737C25.6602 7.27027 25.1115 6.7215 24.4344 6.7215Z" fill="#006CB7"/>
<path d="M27.5806 25.5989H11.0731V28.0505H27.5806V25.5989Z" fill="#006CB7"/>
<path d="M8.04951 22.5348C5.63873 22.5348 3.67743 24.4961 3.67743 26.9069C3.67743 29.3172 5.63873 31.2785 8.04951 31.2785C10.4603 31.2785 12.4216 29.3172 12.4216 26.9069C12.4215 24.4961 10.4603 22.5348 8.04951 22.5348ZM8.04951 28.8265C6.99041 28.8265 6.1291 27.9652 6.1291 26.9065C6.1291 25.8474 6.99041 24.986 8.04951 24.986C9.10861 24.986 9.96992 25.8478 9.96992 26.9065C9.96992 27.9651 9.10816 28.8265 8.04951 28.8265Z" fill="#006CB7"/>
<path d="M36.7742 16.8957H24.4344V19.3473H35.5483V25.5989H33.7914V28.0505H36.7741C37.4512 28.0505 37.9999 27.5021 37.9999 26.8247V18.1215C38 17.4445 37.4512 16.8957 36.7742 16.8957Z" fill="#006CB7"/>
<path d="M33.0678 11.8102C32.8525 11.4187 32.4406 11.1752 31.9936 11.1752H24.4344V13.6268H31.2687L34.0655 18.7123L36.2139 17.5306L33.0678 11.8102Z" fill="#006CB7"/>
</svg>
